# 3ds Max Wavefront OBJ Exporter v0.97b - (c)2007 guruware
# File Created: 02.02.2022 19:09:05

mtllib HexTileModel.mtl

#
# object Cylinder003
#

v  0.0000 0.0000 -0.0000
v  -0.5000 0.0000 -0.8660
v  0.5000 0.0000 -0.8660
v  1.0000 0.0000 -0.0000
v  -0.5000 0.0000 0.8660
v  -1.0000 0.0000 0.0000
v  0.5000 0.0000 0.8660
v  0.5000 0.5000 -0.8660
v  1.0000 0.5000 -0.0000
v  -0.5000 0.5000 -0.8660
v  -1.0000 0.5000 0.0000
v  -0.5000 0.5000 0.8660
v  0.5000 0.5000 0.8660
v  0.0000 0.5000 -0.0000
# 14 vertices

vn 0.0000 -1.0000 -0.0000
vn -0.3962 -0.6100 -0.6862
vn 0.3962 -0.6100 -0.6862
vn 0.7924 -0.6100 0.0000
vn -0.3962 -0.6100 0.6862
vn -0.7924 -0.6100 0.0000
vn 0.3962 -0.6100 0.6862
vn 0.3962 0.6100 -0.6862
vn 0.7924 0.6100 0.0000
vn -0.3962 0.6100 -0.6862
vn -0.7924 0.6100 0.0000
vn -0.3962 0.6100 0.6862
vn 0.3962 0.6100 0.6862
vn 0.0000 1.0000 -0.0000
# 14 vertex normals

vt 0.5000 0.0000 0.0000
vt 0.6667 0.0000 0.0000
vt 0.9167 0.0000 1.0000
vt 0.7500 0.0000 1.0000
vt 0.4167 0.0000 1.0000
vt 0.2500 0.0000 1.0000
vt 0.0833 0.0000 1.0000
vt 0.5833 0.0000 1.0000
vt 0.9167 1.0000 1.0000
vt 0.7500 1.0000 1.0000
vt -0.0833 0.0000 1.0000
vt 0.0833 1.0000 1.0000
vt -0.0833 1.0000 1.0000
vt 0.2500 1.0000 1.0000
vt 0.4167 1.0000 1.0000
vt 0.5833 1.0000 1.0000
vt 0.5000 1.0000 0.0000
# 17 texture coords

o Cylinder003
g Cylinder003
usemtl wire_225087143
s 1
f 1/1/1 2/2/2 3/3/3 4/4/4 
f 1/1/1 5/5/5 6/6/6 2/7/2 
f 1/1/1 4/4/4 7/8/7 5/5/5 
s off
f 4/4/4 3/3/3 8/9/8 9/10/9 
f 3/11/3 2/7/2 10/12/10 8/13/8 
f 2/7/2 6/6/6 11/14/11 10/12/10 
f 6/6/6 5/5/5 12/15/12 11/14/11 
f 5/5/5 7/8/7 13/16/13 12/15/12 
f 7/8/7 4/4/4 9/10/9 13/16/13 
s 1
f 14/17/14 13/16/13 9/10/9 8/9/8 
f 14/17/14 8/13/8 10/12/10 11/14/11 
f 14/17/14 11/14/11 12/15/12 13/16/13 
# 12 polygons

